<?xml version="1.0" encoding="UTF-8" standalone="no"?>
<svg
   xmlns:dc="http://purl.org/dc/elements/1.1/"
   xmlns:cc="http://creativecommons.org/ns#"
   xmlns:rdf="http://www.w3.org/1999/02/22-rdf-syntax-ns#"
   xmlns:svg="http://www.w3.org/2000/svg"
   xmlns="http://www.w3.org/2000/svg"
   xmlns:xlink="http://www.w3.org/1999/xlink"
   version="1.1"
   id="svg11376"
   viewBox="0 0 223.22833 311.81102"
   height="3.4645667in"
   width="2.4803147in">
  <defs
     id="defs11378">
    <linearGradient
       id="linearGradient3006">
      <stop
         id="stop3008"
         offset="0"
         style="stop-color:#ffffff;stop-opacity:1;" />
      <stop
         style="stop-color:#7f7f7f;stop-opacity:1;"
         offset="0.37675071"
         id="stop3014" />
      <stop
         id="stop3016"
         offset="0.80194807"
         style="stop-color:#ffffff;stop-opacity:1;" />
      <stop
         id="stop3010"
         offset="1"
         style="stop-color:#cccccc;stop-opacity:1" />
    </linearGradient>
    <linearGradient
       id="linearGradient3804">
      <stop
         id="stop3806"
         offset="0"
         style="stop-color:#000000;stop-opacity:1;" />
      <stop
         style="stop-color:#333333;stop-opacity:1"
         offset="0.5"
         id="stop3812" />
      <stop
         id="stop3808"
         offset="1"
         style="stop-color:#000000;stop-opacity:1;" />
    </linearGradient>
    <linearGradient
       id="linearGradient3851">
      <stop
         id="stop3853"
         offset="0"
         style="stop-color:#808080;stop-opacity:1;" />
      <stop
         style="stop-color:#ffffff;stop-opacity:1;"
         offset="0.5"
         id="stop3859" />
      <stop
         id="stop3855"
         offset="1"
         style="stop-color:#808080;stop-opacity:1;" />
    </linearGradient>
    <radialGradient
       gradientUnits="userSpaceOnUse"
       gradientTransform="matrix(0.97241988,-0.00350785,0.00204639,0.40929875,4026.4071,-290.65137)"
       r="74.726646"
       fy="208.92761"
       fx="44.149761"
       cy="208.92761"
       cx="44.149761"
       id="radialGradient3939-7-7"
       xlink:href="#linearGradient3933-4-3" />
    <linearGradient
       id="linearGradient3933-4-3">
      <stop
         id="stop3935-0-7"
         offset="0"
         style="stop-color:#000000;stop-opacity:1;" />
      <stop
         id="stop3937-9-2"
         offset="1"
         style="stop-color:#000000;stop-opacity:0;" />
    </linearGradient>
    <linearGradient
       gradientTransform="translate(3914.848,-255.2825)"
       gradientUnits="userSpaceOnUse"
       y2="294.38422"
       x2="178.15625"
       y1="294.38422"
       x1="81.90625"
       id="linearGradient3012-2-7"
       xlink:href="#linearGradient3006" />
    <linearGradient
       gradientUnits="userSpaceOnUse"
       y2="394.69629"
       x2="156.7487"
       y1="394.69629"
       x1="65.223801"
       id="linearGradient3810-9-1"
       xlink:href="#linearGradient3804"
       gradientTransform="translate(3914.848,-376.2825)" />
    <radialGradient
       gradientUnits="userSpaceOnUse"
       gradientTransform="matrix(0.79138519,4.4166814e-8,0,0.48100739,3940.8627,-177.7307)"
       r="43.141743"
       fy="428.49252"
       fx="114.59315"
       cy="428.49252"
       cx="114.59315"
       id="radialGradient3030-7-1"
       xlink:href="#linearGradient3024-3-7" />
    <linearGradient
       id="linearGradient3024-3-7">
      <stop
         style="stop-color:#000000;stop-opacity:1"
         offset="0"
         id="stop3028-2-7" />
      <stop
         style="stop-color:#242424;stop-opacity:1;"
         offset="1"
         id="stop3026-2-7" />
    </linearGradient>
    <linearGradient
       y2="390.78296"
       x2="183.7796"
       y1="375.92633"
       x1="145.60164"
       gradientUnits="userSpaceOnUse"
       id="linearGradient3113-4-7"
       xlink:href="#linearGradient3933-4-3"
       gradientTransform="translate(3914.848,-376.2825)" />
    <linearGradient
       gradientUnits="userSpaceOnUse"
       y2="405.19611"
       x2="116.81388"
       y1="395.66125"
       x1="113.00574"
       id="linearGradient3107-7-9"
       xlink:href="#linearGradient3933-4-3"
       gradientTransform="translate(3914.848,-376.2825)" />
    <linearGradient
       y2="459.14062"
       x2="-128.625"
       y1="459.14062"
       x1="-158.78125"
       gradientTransform="matrix(0.43846429,7.9081918e-4,-6.5324466e-4,0.53080568,903.27012,-3758.3554)"
       gradientUnits="userSpaceOnUse"
       id="linearGradient3086-3-9"
       xlink:href="#linearGradient3804" />
    <linearGradient
       y2="463.51562"
       x2="-281.15625"
       y1="463.51562"
       x1="-311.3125"
       gradientTransform="matrix(0.43846429,7.9081918e-4,-6.5324466e-4,0.53080568,970.15112,-3759.4954)"
       gradientUnits="userSpaceOnUse"
       id="linearGradient3088-8-0"
       xlink:href="#linearGradient3851" />
    <radialGradient
       gradientUnits="userSpaceOnUse"
       gradientTransform="matrix(0.97241988,-0.00350785,0.00204639,0.40929875,4026.4074,-290.65146)"
       r="74.726646"
       fy="208.92761"
       fx="44.149761"
       cy="208.92761"
       cx="44.149761"
       id="radialGradient3939-7-6"
       xlink:href="#linearGradient3933-4-3" />
    <linearGradient
       y2="536.86133"
       x2="201.77882"
       y1="536.86133"
       x1="104.75369"
       gradientTransform="translate(3896.2872,-468.4428)"
       gradientUnits="userSpaceOnUse"
       id="linearGradient3004-8"
       xlink:href="#linearGradient2989-6-6" />
    <linearGradient
       id="linearGradient2989-6-6">
      <stop
         id="stop2991-1-5"
         offset="0"
         style="stop-color:#1f1f1f;stop-opacity:1" />
      <stop
         style="stop-color:#000000;stop-opacity:1;"
         offset="0.5"
         id="stop2997-8-0" />
      <stop
         id="stop2993-9-9"
         offset="1"
         style="stop-color:#444444;stop-opacity:1" />
    </linearGradient>
    <linearGradient
       gradientTransform="translate(3914.8482,-255.28248)"
       gradientUnits="userSpaceOnUse"
       y2="294.38422"
       x2="178.15625"
       y1="294.38422"
       x1="81.90625"
       id="linearGradient3012-2-0"
       xlink:href="#linearGradient3006" />
    <linearGradient
       gradientUnits="userSpaceOnUse"
       y2="394.69629"
       x2="156.7487"
       y1="394.69629"
       x1="65.223801"
       id="linearGradient3810-9-9"
       xlink:href="#linearGradient3804"
       gradientTransform="translate(3914.8482,-376.2825)" />
    <radialGradient
       gradientUnits="userSpaceOnUse"
       gradientTransform="matrix(0.79138519,4.4166814e-8,0,0.48100739,3940.8629,-177.73073)"
       r="43.141743"
       fy="428.49252"
       fx="114.59315"
       cy="428.49252"
       cx="114.59315"
       id="radialGradient3030-7-0"
       xlink:href="#linearGradient3024-3-7" />
    <linearGradient
       y2="390.78296"
       x2="183.7796"
       y1="375.92633"
       x1="145.60164"
       gradientUnits="userSpaceOnUse"
       id="linearGradient3113-4-8"
       xlink:href="#linearGradient3933-4-3"
       gradientTransform="translate(3914.8482,-376.2825)" />
    <linearGradient
       gradientUnits="userSpaceOnUse"
       y2="405.19611"
       x2="116.81388"
       y1="395.66125"
       x1="113.00574"
       id="linearGradient3107-7-3"
       xlink:href="#linearGradient3933-4-3"
       gradientTransform="translate(3914.8482,-376.2825)" />
    <linearGradient
       y2="459.14062"
       x2="-128.625"
       y1="459.14062"
       x1="-158.78125"
       gradientTransform="matrix(0.43846429,7.9081918e-4,-6.5324466e-4,0.53080568,903.2701,-3758.3555)"
       gradientUnits="userSpaceOnUse"
       id="linearGradient3086-3-7"
       xlink:href="#linearGradient3804" />
    <linearGradient
       y2="463.51562"
       x2="-281.15625"
       y1="463.51562"
       x1="-311.3125"
       gradientTransform="matrix(0.43846429,7.9081918e-4,-6.5324466e-4,0.53080568,970.15118,-3759.4955)"
       gradientUnits="userSpaceOnUse"
       id="linearGradient3088-8-1"
       xlink:href="#linearGradient3851" />
    <pattern
       patternTransform="matrix(-0.11059956,0.11059956,-0.11059956,-0.11059956,-70.743467,2137.2659)"
       id="pattern72508"
       xlink:href="#pattern13545-1" />
    <pattern
       xlink:href="#pattern13024-5"
       id="pattern13545-1"
       patternTransform="matrix(-0.11059956,0.11059956,-0.11059956,-0.11059956,-106.1174,687.64592)" />
    <pattern
       patternUnits="userSpaceOnUse"
       width="108.6184"
       height="110.74085"
       patternTransform="translate(-254.02376,74.426221)"
       id="pattern13024-5">
      <path
         transform="translate(1070.3552,-11.763587)"
         d="m -1016.046,25.720671 -10.7642,16.120541 7.1773,18.006272 -18.6578,-5.255841 -14.9071,12.390288 -0.767,-19.36883 -16.3904,-10.348653 18.1838,-6.714754 4.7773,-18.786107 12.0052,15.218884 z"
         id="path13016-2"
         style="fill:#131f67;fill-opacity:1;stroke:none" />
      <path
         style="fill:#131f67;fill-opacity:1;stroke:none"
         id="path13018-7"
         d="m -1016.046,25.720671 -10.7642,16.120541 7.1773,18.006272 -18.6578,-5.255841 -14.9071,12.390288 -0.767,-19.36883 -16.3904,-10.348653 18.1838,-6.714754 4.7773,-18.786107 12.0052,15.218884 z"
         transform="matrix(0.8660254,0.5,-0.5,0.8660254,946.33909,568.72784)" />
      <path
         d="m -1016.046,25.720671 -10.7642,16.120541 7.1773,18.006272 -18.6578,-5.255841 -14.9071,12.390288 -0.767,-19.36883 -16.3904,-10.348653 18.1838,-6.714754 4.7773,-18.786107 12.0052,15.218884 z"
         id="path13020-6"
         style="fill:#131f67;fill-opacity:1;stroke:none"
         transform="translate(1124.6644,-11.763587)" />
      <path
         style="fill:#131f67;fill-opacity:1;stroke:none"
         id="path13022-1"
         d="m -1016.046,25.720671 -10.7642,16.120541 7.1773,18.006272 -18.6578,-5.255841 -14.9071,12.390288 -0.767,-19.36883 -16.3904,-10.348653 18.1838,-6.714754 4.7773,-18.786107 12.0052,15.218884 z"
         transform="matrix(0.8660254,0.5,-0.5,0.8660254,1000.6483,568.72784)" />
    </pattern>
    <pattern
       patternTransform="matrix(0.10623121,-0.1062312,0.10623121,0.1062312,-199.21061,2428.6515)"
       id="pattern72564"
       xlink:href="#pattern15142-1" />
    <pattern
       xlink:href="#pattern13074-4-7"
       id="pattern15142-1"
       patternTransform="matrix(0.10623121,-0.1062312,0.10623121,0.1062312,-598.64084,979.03152)" />
    <pattern
       xlink:href="#pattern13064-2-4"
       id="pattern13074-4-7"
       patternTransform="matrix(0.10623121,-0.1062312,0.10623121,0.1062312,-605.82881,365.81179)" />
    <pattern
       xlink:href="#pattern8526-950-188-3-0"
       id="pattern13064-2-4"
       patternTransform="matrix(0.10623121,-0.1062312,0.10623121,0.1062312,-836.82881,38.811786)" />
    <pattern
       xlink:href="#pattern8519-687-26-2-9"
       id="pattern8526-950-188-3-0"
       patternTransform="matrix(0.10623121,-0.1062312,0.10623121,0.1062312,13.113538,22.901883)" />
    <pattern
       xlink:href="#pattern8507-266-27-2-4"
       id="pattern8519-687-26-2-9"
       patternTransform="matrix(0.10623121,-0.1062312,0.10623121,0.1062312,-23.656015,100.68363)" />
    <pattern
       xlink:href="#pattern8501-248-271-1-8"
       id="pattern8507-266-27-2-4"
       patternTransform="matrix(0.10623119,-0.10623119,0.10623119,0.10623119,194.54709,-74.729113)" />
    <pattern
       xlink:href="#pattern8475-545-163-6-8"
       id="pattern8501-248-271-1-8"
       patternTransform="matrix(0.0652057,-0.0652057,0.0652057,0.0652057,194.54709,-74.729113)" />
    <pattern
       xlink:href="#pattern8463-7-486-8-2"
       id="pattern8475-545-163-6-8"
       patternTransform="matrix(0.11006325,-0.11006325,0.11006325,0.11006325,-254.02376,74.426221)" />
    <pattern
       patternUnits="userSpaceOnUse"
       width="108.6184"
       height="110.74085"
       patternTransform="translate(-254.02376,74.426221)"
       id="pattern8463-7-486-8-2">
      <path
         transform="translate(1070.3552,-11.763587)"
         d="m -1016.046,25.720671 -10.7642,16.120541 7.1773,18.006272 -18.6578,-5.255841 -14.9071,12.390288 -0.767,-19.36883 -16.3904,-10.348653 18.1838,-6.714754 4.7773,-18.786107 12.0052,15.218884 z"
         id="path11396-5-4"
         style="fill:#d40000;fill-opacity:1;stroke:none" />
      <path
         style="fill:#d40000;fill-opacity:1;stroke:none"
         id="path11398-7-5"
         d="m -1016.046,25.720671 -10.7642,16.120541 7.1773,18.006272 -18.6578,-5.255841 -14.9071,12.390288 -0.767,-19.36883 -16.3904,-10.348653 18.1838,-6.714754 4.7773,-18.786107 12.0052,15.218884 z"
         transform="matrix(0.8660254,0.5,-0.5,0.8660254,946.33909,568.72784)" />
      <path
         d="m -1016.046,25.720671 -10.7642,16.120541 7.1773,18.006272 -18.6578,-5.255841 -14.9071,12.390288 -0.767,-19.36883 -16.3904,-10.348653 18.1838,-6.714754 4.7773,-18.786107 12.0052,15.218884 z"
         id="path11400-6-5"
         style="fill:#d40000;fill-opacity:1;stroke:none"
         transform="translate(1124.6644,-11.763587)" />
      <path
         style="fill:#d40000;fill-opacity:1;stroke:none"
         id="path11402-1-1"
         d="m -1016.046,25.720671 -10.7642,16.120541 7.1773,18.006272 -18.6578,-5.255841 -14.9071,12.390288 -0.767,-19.36883 -16.3904,-10.348653 18.1838,-6.714754 4.7773,-18.786107 12.0052,15.218884 z"
         transform="matrix(0.8660254,0.5,-0.5,0.8660254,1000.6483,568.72784)" />
    </pattern>
  </defs>
  <metadata
     id="metadata11381">
    <rdf:RDF>
      <cc:Work
         rdf:about="">
        <dc:format>image/svg+xml</dc:format>
        <dc:type
           rdf:resource="http://purl.org/dc/dcmitype/StillImage" />
        <dc:title></dc:title>
      </cc:Work>
    </rdf:RDF>
  </metadata>
  <g
     transform="translate(-2838.0709,742.60903)"
     id="layer1">
    <g
       transform="matrix(0.99553774,0,0,0.99680134,-159.99209,318.48631)"
       id="g11103-4-9"
       style="display:inline">
      <g
         style="display:inline;opacity:1"
         id="g10276-9-9"
         transform="translate(2751.5683,-1434.2756)">
        <rect
           ry="10.664032"
           rx="10.677567"
           style="display:inline;fill:#ffffff;fill-opacity:1;stroke:#000000;stroke-width:1.0005666;stroke-miterlimit:4;stroke-dasharray:none;stroke-opacity:1"
           id="rect10278-0-6"
           width="223.22835"
           height="311.81104"
           x="260.43304"
           y="370.27557" />
      </g>
      <g
         transform="translate(3012.0013,-1064)"
         style="display:inline;opacity:1"
         id="g10296-8-7" />
      <g
         style="display:inline;opacity:1"
         id="g10302-2-0"
         transform="translate(3038.5929,-1083.9055)" />
      <path
         transform="translate(3124.6155,-853.90551)"
         style="display:inline;opacity:1;fill:#d40000"
         d="m -52.766444,-63.259199 c 0,0 -4.6663,-7.65547 -10.9609,-16.65626 -4.211,-6.02326 -7.5776,-12.54533 -7.8906,-18.16309 -0.359,-6.417311 3.0392,-12.855381 9.1914,-13.167411 6.1485,-0.31185 8.6442,4.94803 9.6601,9.28461 1.016,-4.33658 3.5117,-9.59646 9.6602,-9.28461 6.1522,0.31203 9.5504,6.7501 9.1914,13.167411 -0.313,5.61776 -3.6796,12.13983 -7.8906,18.16309 -6.2946,9.00079 -10.961,16.65626 -10.961,16.65626 z"
         id="path10308-5-1" />
      <path
         transform="translate(3124.6155,-853.90551)"
         style="display:inline;opacity:1;fill:#d40000"
         d="m -95.396892,-140.12123 c 0,0 -2.2247,-3.18978 -5.225698,-6.9401 -2.0077,-2.50969 -3.6127,-5.22722 -3.762,-7.56795 -0.1711,-2.67388 1.449,-5.35641 4.3821,-5.48643 2.931398,-0.12993 4.121198,2.06168 4.605598,3.86859 0.4844,-1.80691 1.6743,-3.99852 4.6056,-3.86859 2.9331,0.13002 4.5533,2.81255 4.3821,5.48643 -0.1492,2.34073 -1.7543,5.05826 -3.7619,7.56795 -3.0011,3.75032 -5.2258,6.9401 -5.2258,6.9401 z"
         id="path10310-7-8" />
      <path
         transform="translate(3124.6155,-853.90551)"
         style="display:inline;opacity:1;fill:#d40000;stroke:none;stroke-opacity:1"
         d="m 93.397604,31.743411 c 0,0 -2.2247,3.18978 -5.2257,6.9401 -2.0077,2.50969 -3.6127,5.22722 -3.762,7.56795 -0.1711,2.67388 1.449,5.35641 4.3821,5.48643 2.9314,0.12993 4.1212,-2.06168 4.6056,-3.86859 0.4844,1.80691 1.6743,3.99852 4.6056,3.86859 2.933096,-0.13002 4.553296,-2.81255 4.382096,-5.48643 -0.1492,-2.34073 -1.7543,-5.05826 -3.761896,-7.56795 -3.0011,-3.75032 -5.2258,-6.9401 -5.2258,-6.9401 z"
         id="path10312-3-5" />
      <path
         transform="translate(3124.6155,-853.90551)"
         id="path10314-8-8"
         d="m -1.000051,-86.7592 c 0,0 -4.6663,-7.655471 -10.9609,-16.65626 -4.211,-6.02326 -7.5776,-12.54533 -7.8906,-18.16309 -0.359,-6.41731 3.0392,-12.85538 9.1914,-13.16741 6.1485,-0.31185 8.6442,4.94803 9.6601,9.28461 1.01600005,-4.33658 3.5117,-9.59646 9.6602,-9.28461 6.1522,0.31203 9.5504,6.7501 9.1914,13.16741 -0.313,5.61776 -3.6796,12.13983 -7.8906,18.16309 -6.2946,9.000789 -10.961,16.65626 -10.961,16.65626 z"
         style="display:inline;opacity:1;fill:#d40000" />
      <path
         transform="translate(3124.6155,-853.90551)"
         id="path10318-3-7"
         d="m -52.766444,-129.39963 c 0,0 -4.6663,-7.65547 -10.9609,-16.65626 -4.211,-6.02326 -7.5776,-12.54533 -7.8906,-18.16309 -0.359,-6.41731 3.0392,-12.85538 9.1914,-13.16741 6.1485,-0.31185 8.6442,4.94803 9.6601,9.28461 1.016,-4.33658 3.5117,-9.59646 9.6602,-9.28461 6.1522,0.31203 9.5504,6.7501 9.1914,13.16741 -0.313,5.61776 -3.6796,12.13983 -7.8906,18.16309 -6.2946,9.00079 -10.961,16.65626 -10.961,16.65626 z"
         style="display:inline;opacity:1;fill:#d40000" />
      <path
         transform="translate(3124.6155,-853.90551)"
         style="display:inline;opacity:1;fill:#d40000"
         d="m 50.766354,-63.259199 c 0,0 -4.6663,-7.65547 -10.9609,-16.65626 -4.211,-6.02326 -7.5776,-12.54533 -7.8906,-18.16309 -0.359,-6.417311 3.0392,-12.855381 9.1914,-13.167411 6.1485,-0.31185 8.6442,4.94803 9.6601,9.28461 1.016,-4.33658 3.5117,-9.59646 9.6602,-9.28461 6.1522,0.31203 9.5504,6.7501 9.1914,13.167411 -0.313,5.61776 -3.6796,12.13983 -7.8906,18.16309 -6.2946,9.00079 -10.961,16.65626 -10.961,16.65626 z"
         id="path10322-4-6" />
      <path
         transform="translate(3124.6155,-853.90551)"
         id="path10324-9-8"
         d="m 50.766354,-129.39963 c 0,0 -4.6663,-7.65547 -10.9609,-16.65626 -4.211,-6.02326 -7.5776,-12.54533 -7.8906,-18.16309 -0.359,-6.41731 3.0392,-12.85538 9.1914,-13.16741 6.1485,-0.31185 8.6442,4.94803 9.6601,9.28461 1.016,-4.33658 3.5117,-9.59646 9.6602,-9.28461 6.1522,0.31203 9.5504,6.7501 9.1914,13.16741 -0.313,5.61776 -3.6796,12.13983 -7.8906,18.16309 -6.2946,9.00079 -10.961,16.65626 -10.961,16.65626 z"
         style="display:inline;opacity:1;fill:#d40000" />
      <path
         transform="translate(3124.6155,-853.90551)"
         id="path10332-8-6"
         d="m -1.00005,-21.61876 c 0,0 -4.6663,7.65547 -10.9609,16.6562704 -4.211,6.0232596 -7.5776,12.5453296 -7.8906,18.1630796 -0.359,6.41731 3.0392,12.85538 9.1914,13.16741 6.1485,0.31185 8.6442,-4.94803 9.6601,-9.28461 1.01600005,4.33658 3.5117,9.59646 9.6602,9.28461 6.1522,-0.31203 9.5504,-6.7501 9.1914,-13.16741 C 17.53855,7.58284 14.17195,1.06077 9.96095,-4.9624896 3.66635,-13.96329 -1.00005,-21.61876 -1.00005,-21.61876 Z"
         style="display:inline;opacity:1;fill:#d40000" />
      <path
         transform="translate(3124.6155,-853.90551)"
         style="display:inline;opacity:1;fill:#d40000"
         d="m 50.766354,-45.118759 c 0,0 -4.6663,7.65547 -10.9609,16.65626 -4.211,6.02326 -7.5776,12.54533 -7.8906,18.16309 -0.359,6.4173104 3.0392,12.8553804 9.1914,13.1674104 6.1485,0.31185 8.6442,-4.94803 9.6601,-9.28461 1.016,4.33658 3.5117,9.59646 9.6602,9.28461 6.1522,-0.31203 9.5504,-6.7501 9.1914,-13.1674104 -0.313,-5.61776 -3.6796,-12.13983 -7.8906,-18.16309 -6.2946,-9.00079 -10.961,-16.65626 -10.961,-16.65626 z"
         id="path10334-5-0" />
      <path
         transform="translate(3124.6155,-853.90551)"
         id="path10336-3-5"
         d="m -52.766444,-45.118759 c 0,0 -4.6663,7.65547 -10.9609,16.65626 -4.211,6.02326 -7.5776,12.54533 -7.8906,18.16309 -0.359,6.4173104 3.0392,12.8553804 9.1914,13.1674104 6.1485,0.31185 8.6442,-4.94803 9.6601,-9.28461 1.016,4.33658 3.5117,9.59646 9.6602,9.28461 6.1522,-0.31203 9.5504,-6.7501 9.1914,-13.1674104 -0.313,-5.61776 -3.6796,-12.13983 -7.8906,-18.16309 -6.2946,-9.00079 -10.961,-16.65626 -10.961,-16.65626 z"
         style="display:inline;opacity:1;fill:#d40000" />
      <path
         transform="translate(3124.6155,-853.90551)"
         style="display:inline;opacity:1;fill:#d40000;stroke:none;stroke-opacity:1"
         d="m 50.766354,21.021681 c 0,0 -4.6663,7.65547 -10.9609,16.65626 -4.211,6.02326 -7.5776,12.54533 -7.8906,18.16309 -0.359,6.41731 3.0392,12.85538 9.1914,13.16741 6.1485,0.31185 8.6442,-4.94803 9.6601,-9.28461 1.016,4.33658 3.5117,9.59646 9.6602,9.28461 6.1522,-0.31203 9.5504,-6.7501 9.1914,-13.16741 -0.313,-5.61776 -3.6796,-12.13983 -7.8906,-18.16309 -6.2946,-9.00079 -10.961,-16.65626 -10.961,-16.65626 z"
         id="path10338-2-9" />
      <path
         transform="translate(3124.6155,-853.90551)"
         id="path10340-9-7"
         d="m -52.766444,21.021681 c 0,0 -4.6663,7.65547 -10.9609,16.65626 -4.211,6.02326 -7.5776,12.54533 -7.8906,18.16309 -0.359,6.41731 3.0392,12.85538 9.1914,13.16741 6.1485,0.31185 8.6442,-4.94803 9.6601,-9.28461 1.016,4.33658 3.5117,9.59646 9.6602,9.28461 6.1522,-0.31203 9.5504,-6.7501 9.1914,-13.16741 -0.313,-5.61776 -3.6796,-12.13983 -7.8906,-18.16309 -6.2946,-9.00079 -10.961,-16.65626 -10.961,-16.65626 z"
         style="display:inline;opacity:1;fill:#d40000" />
      <g
         id="g7724-24-8-9-7"
         transform="matrix(1,0,0,0.9999803,1980.6157,-1572.2811)"
         style="opacity:1;fill:#d40000;fill-opacity:1;stroke-width:1.00001979;stroke-miterlimit:4;stroke-dasharray:none">
        <g
           id="g8345-9-7-5-1"
           style="fill:#d40000;fill-opacity:1;stroke-width:1.00001979;stroke-miterlimit:4;stroke-dasharray:none">
          <path
             d="m 1038.5828,555.12975 v -33 h 3.1988 v 33 z m 0,0"
             id="path31-8-2-9-8"
             style="fill:#d40000;fill-opacity:1;stroke-width:1.00001979;stroke-miterlimit:4;stroke-dasharray:none" />
          <path
             d="m 1051.2635,522.1291 c -3.0793,0 -5.5542,2.81264 -5.5542,6.30617 v 20.38896 c 0,3.49354 2.4762,6.30487 5.5542,6.30487 h 1.7974 c 3.0792,0 5.5593,-2.81133 5.5593,-6.30487 v -20.38896 c 0,-3.49353 -2.4814,-6.30617 -5.5593,-6.30617 z m 0.9295,3.12035 c 1.818,0 3.2798,1.39453 3.2798,3.13868 v 20.65871 c 0,1.74415 -1.4618,3.15177 -3.2798,3.15177 -1.8179,0 -3.2849,-1.40762 -3.2849,-3.15177 v -20.65871 c 0,-1.74284 1.467,-3.13868 3.2849,-3.13868 z m 0,0"
             id="path33-2-3-1-6"
             style="fill:#d40000;fill-opacity:1;stroke-width:1.00001979;stroke-miterlimit:4;stroke-dasharray:none" />
        </g>
      </g>
      <g
         id="g7724-2-5-0-2-7"
         transform="matrix(-1,0,0,-0.9999803,4261.3055,-244.23701)"
         style="opacity:1;fill:#d40000;fill-opacity:1">
        <g
           id="g8345-5-0-9-6-9"
           style="fill:#d40000;fill-opacity:1">
          <g
             id="g10963-5-1"
             transform="translate(-5.30767,-0.32920043)">
            <path
               style="fill:#d40000;fill-opacity:1"
               id="path31-1-3-2-1-5"
               d="m 1038.5828,555.12975 v -33 h 3.1988 v 33 z m 0,0" />
            <path
               style="fill:#d40000;fill-opacity:1"
               id="path33-5-5-3-3-1"
               d="m 1051.2635,522.1291 c -3.0793,0 -5.5542,2.81264 -5.5542,6.30617 v 20.38896 c 0,3.49354 2.4762,6.30487 5.5542,6.30487 h 1.7974 c 3.0792,0 5.5593,-2.81133 5.5593,-6.30487 v -20.38896 c 0,-3.49353 -2.4814,-6.30617 -5.5593,-6.30617 z m 0.9295,3.12035 c 1.818,0 3.2798,1.39453 3.2798,3.13868 v 20.65871 c 0,1.74415 -1.4618,3.15177 -3.2798,3.15177 -1.8179,0 -3.2849,-1.40762 -3.2849,-3.15177 v -20.65871 c 0,-1.74284 1.467,-3.13868 3.2849,-3.13868 z m 0,0" />
          </g>
        </g>
      </g>
    </g>
  </g>
</svg>
