<?xml version="1.0" encoding="UTF-8" standalone="no"?>
<svg
   xmlns:dc="http://purl.org/dc/elements/1.1/"
   xmlns:cc="http://creativecommons.org/ns#"
   xmlns:rdf="http://www.w3.org/1999/02/22-rdf-syntax-ns#"
   xmlns:svg="http://www.w3.org/2000/svg"
   xmlns="http://www.w3.org/2000/svg"
   xmlns:xlink="http://www.w3.org/1999/xlink"
   version="1.1"
   id="svg11376"
   viewBox="0 0 223.22835 311.81104"
   height="3.4645669in"
   width="2.480315in">
  <defs
     id="defs11378">
    <linearGradient
       id="linearGradient3006">
      <stop
         id="stop3008"
         offset="0"
         style="stop-color:#ffffff;stop-opacity:1;" />
      <stop
         style="stop-color:#7f7f7f;stop-opacity:1;"
         offset="0.37675071"
         id="stop3014" />
      <stop
         id="stop3016"
         offset="0.80194807"
         style="stop-color:#ffffff;stop-opacity:1;" />
      <stop
         id="stop3010"
         offset="1"
         style="stop-color:#cccccc;stop-opacity:1" />
    </linearGradient>
    <linearGradient
       id="linearGradient3804">
      <stop
         id="stop3806"
         offset="0"
         style="stop-color:#000000;stop-opacity:1;" />
      <stop
         style="stop-color:#333333;stop-opacity:1"
         offset="0.5"
         id="stop3812" />
      <stop
         id="stop3808"
         offset="1"
         style="stop-color:#000000;stop-opacity:1;" />
    </linearGradient>
    <linearGradient
       id="linearGradient3851">
      <stop
         id="stop3853"
         offset="0"
         style="stop-color:#808080;stop-opacity:1;" />
      <stop
         style="stop-color:#ffffff;stop-opacity:1;"
         offset="0.5"
         id="stop3859" />
      <stop
         id="stop3855"
         offset="1"
         style="stop-color:#808080;stop-opacity:1;" />
    </linearGradient>
    <radialGradient
       gradientUnits="userSpaceOnUse"
       gradientTransform="matrix(0.97241988,-0.00350785,0.00204639,0.40929875,4026.4071,-290.65137)"
       r="74.726646"
       fy="208.92761"
       fx="44.149761"
       cy="208.92761"
       cx="44.149761"
       id="radialGradient3939-7-7"
       xlink:href="#linearGradient3933-4-3" />
    <linearGradient
       id="linearGradient3933-4-3">
      <stop
         id="stop3935-0-7"
         offset="0"
         style="stop-color:#000000;stop-opacity:1;" />
      <stop
         id="stop3937-9-2"
         offset="1"
         style="stop-color:#000000;stop-opacity:0;" />
    </linearGradient>
    <linearGradient
       gradientTransform="translate(3914.848,-255.2825)"
       gradientUnits="userSpaceOnUse"
       y2="294.38422"
       x2="178.15625"
       y1="294.38422"
       x1="81.90625"
       id="linearGradient3012-2-7"
       xlink:href="#linearGradient3006" />
    <linearGradient
       gradientUnits="userSpaceOnUse"
       y2="394.69629"
       x2="156.7487"
       y1="394.69629"
       x1="65.223801"
       id="linearGradient3810-9-1"
       xlink:href="#linearGradient3804"
       gradientTransform="translate(3914.848,-376.2825)" />
    <radialGradient
       gradientUnits="userSpaceOnUse"
       gradientTransform="matrix(0.79138519,4.4166814e-8,0,0.48100739,3940.8627,-177.7307)"
       r="43.141743"
       fy="428.49252"
       fx="114.59315"
       cy="428.49252"
       cx="114.59315"
       id="radialGradient3030-7-1"
       xlink:href="#linearGradient3024-3-7" />
    <linearGradient
       id="linearGradient3024-3-7">
      <stop
         style="stop-color:#000000;stop-opacity:1"
         offset="0"
         id="stop3028-2-7" />
      <stop
         style="stop-color:#242424;stop-opacity:1;"
         offset="1"
         id="stop3026-2-7" />
    </linearGradient>
    <linearGradient
       y2="390.78296"
       x2="183.7796"
       y1="375.92633"
       x1="145.60164"
       gradientUnits="userSpaceOnUse"
       id="linearGradient3113-4-7"
       xlink:href="#linearGradient3933-4-3"
       gradientTransform="translate(3914.848,-376.2825)" />
    <linearGradient
       gradientUnits="userSpaceOnUse"
       y2="405.19611"
       x2="116.81388"
       y1="395.66125"
       x1="113.00574"
       id="linearGradient3107-7-9"
       xlink:href="#linearGradient3933-4-3"
       gradientTransform="translate(3914.848,-376.2825)" />
    <linearGradient
       y2="459.14062"
       x2="-128.625"
       y1="459.14062"
       x1="-158.78125"
       gradientTransform="matrix(0.43846429,7.9081918e-4,-6.5324466e-4,0.53080568,903.27012,-3758.3554)"
       gradientUnits="userSpaceOnUse"
       id="linearGradient3086-3-9"
       xlink:href="#linearGradient3804" />
    <linearGradient
       y2="463.51562"
       x2="-281.15625"
       y1="463.51562"
       x1="-311.3125"
       gradientTransform="matrix(0.43846429,7.9081918e-4,-6.5324466e-4,0.53080568,970.15112,-3759.4954)"
       gradientUnits="userSpaceOnUse"
       id="linearGradient3088-8-0"
       xlink:href="#linearGradient3851" />
    <radialGradient
       gradientUnits="userSpaceOnUse"
       gradientTransform="matrix(0.97241988,-0.00350785,0.00204639,0.40929875,4026.4074,-290.65146)"
       r="74.726646"
       fy="208.92761"
       fx="44.149761"
       cy="208.92761"
       cx="44.149761"
       id="radialGradient3939-7-6"
       xlink:href="#linearGradient3933-4-3" />
    <linearGradient
       y2="536.86133"
       x2="201.77882"
       y1="536.86133"
       x1="104.75369"
       gradientTransform="translate(3896.2872,-468.4428)"
       gradientUnits="userSpaceOnUse"
       id="linearGradient3004-8"
       xlink:href="#linearGradient2989-6-6" />
    <linearGradient
       id="linearGradient2989-6-6">
      <stop
         id="stop2991-1-5"
         offset="0"
         style="stop-color:#1f1f1f;stop-opacity:1" />
      <stop
         style="stop-color:#000000;stop-opacity:1;"
         offset="0.5"
         id="stop2997-8-0" />
      <stop
         id="stop2993-9-9"
         offset="1"
         style="stop-color:#444444;stop-opacity:1" />
    </linearGradient>
    <linearGradient
       gradientTransform="translate(3914.8482,-255.28248)"
       gradientUnits="userSpaceOnUse"
       y2="294.38422"
       x2="178.15625"
       y1="294.38422"
       x1="81.90625"
       id="linearGradient3012-2-0"
       xlink:href="#linearGradient3006" />
    <linearGradient
       gradientUnits="userSpaceOnUse"
       y2="394.69629"
       x2="156.7487"
       y1="394.69629"
       x1="65.223801"
       id="linearGradient3810-9-9"
       xlink:href="#linearGradient3804"
       gradientTransform="translate(3914.8482,-376.2825)" />
    <radialGradient
       gradientUnits="userSpaceOnUse"
       gradientTransform="matrix(0.79138519,4.4166814e-8,0,0.48100739,3940.8629,-177.73073)"
       r="43.141743"
       fy="428.49252"
       fx="114.59315"
       cy="428.49252"
       cx="114.59315"
       id="radialGradient3030-7-0"
       xlink:href="#linearGradient3024-3-7" />
    <linearGradient
       y2="390.78296"
       x2="183.7796"
       y1="375.92633"
       x1="145.60164"
       gradientUnits="userSpaceOnUse"
       id="linearGradient3113-4-8"
       xlink:href="#linearGradient3933-4-3"
       gradientTransform="translate(3914.8482,-376.2825)" />
    <linearGradient
       gradientUnits="userSpaceOnUse"
       y2="405.19611"
       x2="116.81388"
       y1="395.66125"
       x1="113.00574"
       id="linearGradient3107-7-3"
       xlink:href="#linearGradient3933-4-3"
       gradientTransform="translate(3914.8482,-376.2825)" />
    <linearGradient
       y2="459.14062"
       x2="-128.625"
       y1="459.14062"
       x1="-158.78125"
       gradientTransform="matrix(0.43846429,7.9081918e-4,-6.5324466e-4,0.53080568,903.2701,-3758.3555)"
       gradientUnits="userSpaceOnUse"
       id="linearGradient3086-3-7"
       xlink:href="#linearGradient3804" />
    <linearGradient
       y2="463.51562"
       x2="-281.15625"
       y1="463.51562"
       x1="-311.3125"
       gradientTransform="matrix(0.43846429,7.9081918e-4,-6.5324466e-4,0.53080568,970.15118,-3759.4955)"
       gradientUnits="userSpaceOnUse"
       id="linearGradient3088-8-1"
       xlink:href="#linearGradient3851" />
    <pattern
       patternTransform="matrix(-0.11059956,0.11059956,-0.11059956,-0.11059956,-70.743467,2137.2659)"
       id="pattern72508"
       xlink:href="#pattern13545-1" />
    <pattern
       xlink:href="#pattern13024-5"
       id="pattern13545-1"
       patternTransform="matrix(-0.11059956,0.11059956,-0.11059956,-0.11059956,-106.1174,687.64592)" />
    <pattern
       patternUnits="userSpaceOnUse"
       width="108.6184"
       height="110.74085"
       patternTransform="translate(-254.02376,74.426221)"
       id="pattern13024-5">
      <path
         transform="translate(1070.3552,-11.763587)"
         d="m -1016.046,25.720671 -10.7642,16.120541 7.1773,18.006272 -18.6578,-5.255841 -14.9071,12.390288 -0.767,-19.36883 -16.3904,-10.348653 18.1838,-6.714754 4.7773,-18.786107 12.0052,15.218884 z"
         id="path13016-2"
         style="fill:#131f67;fill-opacity:1;stroke:none" />
      <path
         style="fill:#131f67;fill-opacity:1;stroke:none"
         id="path13018-7"
         d="m -1016.046,25.720671 -10.7642,16.120541 7.1773,18.006272 -18.6578,-5.255841 -14.9071,12.390288 -0.767,-19.36883 -16.3904,-10.348653 18.1838,-6.714754 4.7773,-18.786107 12.0052,15.218884 z"
         transform="matrix(0.8660254,0.5,-0.5,0.8660254,946.33909,568.72784)" />
      <path
         d="m -1016.046,25.720671 -10.7642,16.120541 7.1773,18.006272 -18.6578,-5.255841 -14.9071,12.390288 -0.767,-19.36883 -16.3904,-10.348653 18.1838,-6.714754 4.7773,-18.786107 12.0052,15.218884 z"
         id="path13020-6"
         style="fill:#131f67;fill-opacity:1;stroke:none"
         transform="translate(1124.6644,-11.763587)" />
      <path
         style="fill:#131f67;fill-opacity:1;stroke:none"
         id="path13022-1"
         d="m -1016.046,25.720671 -10.7642,16.120541 7.1773,18.006272 -18.6578,-5.255841 -14.9071,12.390288 -0.767,-19.36883 -16.3904,-10.348653 18.1838,-6.714754 4.7773,-18.786107 12.0052,15.218884 z"
         transform="matrix(0.8660254,0.5,-0.5,0.8660254,1000.6483,568.72784)" />
    </pattern>
    <pattern
       patternTransform="matrix(0.10623121,-0.1062312,0.10623121,0.1062312,-199.21061,2428.6515)"
       id="pattern72564"
       xlink:href="#pattern15142-1" />
    <pattern
       xlink:href="#pattern13074-4-7"
       id="pattern15142-1"
       patternTransform="matrix(0.10623121,-0.1062312,0.10623121,0.1062312,-598.64084,979.03152)" />
    <pattern
       xlink:href="#pattern13064-2-4"
       id="pattern13074-4-7"
       patternTransform="matrix(0.10623121,-0.1062312,0.10623121,0.1062312,-605.82881,365.81179)" />
    <pattern
       xlink:href="#pattern8526-950-188-3-0"
       id="pattern13064-2-4"
       patternTransform="matrix(0.10623121,-0.1062312,0.10623121,0.1062312,-836.82881,38.811786)" />
    <pattern
       xlink:href="#pattern8519-687-26-2-9"
       id="pattern8526-950-188-3-0"
       patternTransform="matrix(0.10623121,-0.1062312,0.10623121,0.1062312,13.113538,22.901883)" />
    <pattern
       xlink:href="#pattern8507-266-27-2-4"
       id="pattern8519-687-26-2-9"
       patternTransform="matrix(0.10623121,-0.1062312,0.10623121,0.1062312,-23.656015,100.68363)" />
    <pattern
       xlink:href="#pattern8501-248-271-1-8"
       id="pattern8507-266-27-2-4"
       patternTransform="matrix(0.10623119,-0.10623119,0.10623119,0.10623119,194.54709,-74.729113)" />
    <pattern
       xlink:href="#pattern8475-545-163-6-8"
       id="pattern8501-248-271-1-8"
       patternTransform="matrix(0.0652057,-0.0652057,0.0652057,0.0652057,194.54709,-74.729113)" />
    <pattern
       xlink:href="#pattern8463-7-486-8-2"
       id="pattern8475-545-163-6-8"
       patternTransform="matrix(0.11006325,-0.11006325,0.11006325,0.11006325,-254.02376,74.426221)" />
    <pattern
       patternUnits="userSpaceOnUse"
       width="108.6184"
       height="110.74085"
       patternTransform="translate(-254.02376,74.426221)"
       id="pattern8463-7-486-8-2">
      <path
         transform="translate(1070.3552,-11.763587)"
         d="m -1016.046,25.720671 -10.7642,16.120541 7.1773,18.006272 -18.6578,-5.255841 -14.9071,12.390288 -0.767,-19.36883 -16.3904,-10.348653 18.1838,-6.714754 4.7773,-18.786107 12.0052,15.218884 z"
         id="path11396-5-4"
         style="fill:#d40000;fill-opacity:1;stroke:none" />
      <path
         style="fill:#d40000;fill-opacity:1;stroke:none"
         id="path11398-7-5"
         d="m -1016.046,25.720671 -10.7642,16.120541 7.1773,18.006272 -18.6578,-5.255841 -14.9071,12.390288 -0.767,-19.36883 -16.3904,-10.348653 18.1838,-6.714754 4.7773,-18.786107 12.0052,15.218884 z"
         transform="matrix(0.8660254,0.5,-0.5,0.8660254,946.33909,568.72784)" />
      <path
         d="m -1016.046,25.720671 -10.7642,16.120541 7.1773,18.006272 -18.6578,-5.255841 -14.9071,12.390288 -0.767,-19.36883 -16.3904,-10.348653 18.1838,-6.714754 4.7773,-18.786107 12.0052,15.218884 z"
         id="path11400-6-5"
         style="fill:#d40000;fill-opacity:1;stroke:none"
         transform="translate(1124.6644,-11.763587)" />
      <path
         style="fill:#d40000;fill-opacity:1;stroke:none"
         id="path11402-1-1"
         d="m -1016.046,25.720671 -10.7642,16.120541 7.1773,18.006272 -18.6578,-5.255841 -14.9071,12.390288 -0.767,-19.36883 -16.3904,-10.348653 18.1838,-6.714754 4.7773,-18.786107 12.0052,15.218884 z"
         transform="matrix(0.8660254,0.5,-0.5,0.8660254,1000.6483,568.72784)" />
    </pattern>
  </defs>
  <metadata
     id="metadata11381">
    <rdf:RDF>
      <cc:Work
         rdf:about="">
        <dc:format>image/svg+xml</dc:format>
        <dc:type
           rdf:resource="http://purl.org/dc/dcmitype/StillImage" />
        <dc:title></dc:title>
      </cc:Work>
    </rdf:RDF>
  </metadata>
  <g
     transform="translate(-2838.0709,1094.4207)"
     id="layer1">
    <g
       transform="matrix(0.99999718,0,0,1.000002,-2.9818333,-5.5506344)"
       id="g5526">
      <rect
         ry="10.629899"
         rx="10.62995"
         style="display:inline;opacity:1;fill:#ffffff;fill-opacity:1;stroke:#000000;stroke-width:0.99673378;stroke-miterlimit:4;stroke-dasharray:none;stroke-opacity:1"
         id="rect6355-6-85-3-6-8-7"
         width="222.23224"
         height="310.81366"
         x="2841.5591"
         y="-1088.3695" />
      <path
         style="display:inline;opacity:1"
         id="path147-0-8-1-6-13-2-22-1-5"
         d="m 3004.2066,-1055.3648 c -9.7745,0.2123 -14.1574,11.2173 -6.9184,19.7633 1.0499,1.2466 1.1582,1.9619 -0.7646,0.7646 -4.8738,-3.2592 -14.2192,-1.1167 -14.6978,8.8472 -0.5911,12.277 16.5629,15.8143 19.7837,2.7597 0.1701,-1.3774 1.2895,-1.3459 1.0196,0.6092 -0.2937,5.3064 -1.9509,10.266 -4.2287,15.1025 3.8391,0 8.1296,0 11.6202,0 -2.2777,-4.8365 -3.9349,-9.7961 -4.2286,-15.1025 -0.2699,-1.9551 0.8495,-1.9866 1.0195,-0.6092 3.2209,13.0546 20.3749,9.5173 19.7837,-2.7597 -0.4784,-9.9639 -9.8239,-12.1064 -14.6978,-8.8472 -1.9228,1.1973 -1.8144,0.482 -0.7645,-0.7646 7.239,-8.546 2.8561,-19.551 -6.9183,-19.7633 0,0 0,10e-5 -0.01,0 z" />
      <path
         style="display:inline;opacity:1"
         id="path147-0-8-1-6-75-2-83-21-1-8"
         d="m 2901.1358,-1055.3648 c -9.7745,0.2123 -14.1575,11.2173 -6.9184,19.7633 1.0499,1.2466 1.1582,1.9619 -0.7646,0.7646 -4.8738,-3.2592 -14.2192,-1.1167 -14.6978,8.8472 -0.5911,12.277 16.5629,15.8143 19.7837,2.7597 0.1701,-1.3774 1.2894,-1.3459 1.0196,0.6092 -0.2937,5.3064 -1.9509,10.266 -4.2287,15.1025 3.8391,0 8.1296,0 11.6202,0 -2.2777,-4.8365 -3.9349,-9.7961 -4.2286,-15.1025 -0.2699,-1.9551 0.8495,-1.9866 1.0195,-0.6092 3.2209,13.0546 20.3749,9.5173 19.7837,-2.7597 -0.4784,-9.9639 -9.8239,-12.1064 -14.6978,-8.8472 -1.9228,1.1973 -1.8145,0.482 -0.7646,-0.7646 7.2391,-8.546 2.8561,-19.551 -6.9182,-19.7633 0,0 0,10e-5 -0.01,0 z" />
      <path
         style="display:inline;opacity:1"
         id="path147-0-8-1-6-7-5-5-7-3-5-5"
         d="m 3004.2066,-809.7317 c -9.7745,-0.21226 -14.1574,-11.21727 -6.9184,-19.76328 1.0499,-1.24653 1.1582,-1.96188 -0.7646,-0.76453 -4.8738,3.25919 -14.2192,1.11663 -14.6978,-8.84728 -0.5911,-12.27695 16.5629,-15.81426 19.7837,-2.75967 0.1701,1.37736 1.2895,1.34594 1.0196,-0.60916 -0.2937,-5.30641 -1.9509,-10.26606 -4.2287,-15.10253 3.8391,0 8.1296,0 11.6202,0 -2.2777,4.83647 -3.9349,9.79612 -4.2286,15.10253 -0.2699,1.9551 0.8495,1.98652 1.0195,0.60916 3.2209,-13.05459 20.3749,-9.51728 19.7837,2.75967 -0.4784,9.96391 -9.8239,12.10647 -14.6978,8.84728 -1.9228,-1.19735 -1.8144,-0.482 -0.7645,0.76453 7.239,8.54601 2.8561,19.55101 -6.9183,19.76328 0,6e-5 0,-5e-5 -0.01,0 z" />
      <path
         style="display:inline;opacity:1"
         id="path147-0-8-1-6-75-6-1-2-7-9-3"
         d="m 2901.1358,-809.7317 c -9.7745,-0.21226 -14.1575,-11.21727 -6.9184,-19.76328 1.0499,-1.24653 1.1582,-1.96188 -0.7646,-0.76453 -4.8738,3.25919 -14.2192,1.11663 -14.6978,-8.84728 -0.5911,-12.27695 16.5629,-15.81426 19.7837,-2.75967 0.1701,1.37736 1.2894,1.34594 1.0196,-0.60916 -0.2937,-5.30641 -1.9509,-10.26606 -4.2287,-15.10253 3.8391,0 8.1296,0 11.6202,0 -2.2777,4.83647 -3.9349,9.79612 -4.2286,15.10253 -0.2699,1.9551 0.8495,1.98652 1.0195,0.60916 3.2209,-13.05459 20.3749,-9.51728 19.7837,2.75967 -0.4784,9.96391 -9.8239,12.10647 -14.6978,8.84728 -1.9228,-1.19735 -1.8145,-0.482 -0.7646,0.76453 7.2391,8.54601 2.8561,19.55101 -6.9182,19.76328 0,6e-5 0,-5e-5 -0.01,0 z" />
      <path
         style="display:inline;opacity:1"
         id="path147-0-8-1-6-2-00-7-1-1-4"
         d="m 2952.6711,-1022.4001 c -9.7745,0.2123 -14.1573,11.2173 -6.9184,19.7633 1.0499,1.2465 1.1582,1.9619 -0.7645,0.7645 -4.8739,-3.2592 -14.2193,-1.1166 -14.6979,8.84731 -0.5911,12.27694 16.5629,15.81426 19.7838,2.75966 0.17,-1.37736 1.2894,-1.34593 1.0195,0.60917 -0.2937,5.30641 -1.9509,10.26605 -4.2286,15.10252 3.839,0 8.1295,0 11.6202,0 -2.2777,-4.83647 -3.935,-9.79611 -4.2287,-15.10252 -0.2699,-1.9551 0.8495,-1.98653 1.0195,-0.60917 3.2209,13.0546 20.3749,9.51728 19.7838,-2.75966 -0.4785,-9.96391 -9.824,-12.10651 -14.6978,-8.84731 -1.9228,1.1974 -1.8145,0.482 -0.7646,-0.7645 7.239,-8.546 2.8561,-19.551 -6.9183,-19.7633 0,0 0,10e-5 -0.01,0 z" />
      <path
         style="display:inline;opacity:1"
         id="path147-0-8-1-6-2-0-8-6-8-1-8"
         d="m 2952.6712,-842.69613 c -9.7745,-0.21226 -14.1575,-11.21726 -6.9184,-19.76327 1.0499,-1.24653 1.1582,-1.96188 -0.7646,-0.76453 -4.8738,3.25919 -14.2192,1.11663 -14.6978,-8.84728 -0.5911,-12.27695 16.5629,-15.81427 19.7837,-2.75967 0.1701,1.37736 1.2895,1.34594 1.0196,-0.60916 -0.2937,-5.30642 -1.9509,-10.26607 -4.2287,-15.10254 3.8391,0 8.1296,0 11.6202,0 -2.2777,4.83647 -3.9349,9.79612 -4.2286,15.10254 -0.2699,1.9551 0.8495,1.98652 1.0195,0.60916 3.2209,-13.0546 20.3749,-9.51728 19.7837,2.75967 -0.4784,9.96391 -9.8239,12.10647 -14.6978,8.84728 -1.9228,-1.19735 -1.8144,-0.482 -0.7646,0.76453 7.2391,8.54601 2.8562,19.551 -6.9182,19.76327 0,6e-5 0,-5e-5 -0.01,0 z" />
      <path
         style="display:inline;opacity:1"
         id="path147-6-9-8-7-0-5-6-83-3-7"
         d="m 3046.6532,-827.36919 c 3.9097,-0.0884 5.663,-4.67386 2.7673,-8.23469 -0.42,-0.51939 -0.4633,-0.81746 0.3059,-0.31856 1.9495,1.358 5.6877,0.46526 5.8791,-3.68637 0.2365,-5.1154 -6.6252,-6.58928 -7.9135,-1.14986 -0.068,0.57391 -0.5158,0.56081 -0.4078,-0.25382 0.1175,-2.211 0.7803,-4.27752 1.6914,-6.29271 -1.5492,0 -3.0986,0 -4.6478,0 0.9111,2.01519 1.5739,4.08171 1.6914,6.29271 0.108,0.81463 -0.3398,0.82773 -0.4078,0.25382 -1.2883,-5.43942 -8.1499,-3.96554 -7.9135,1.14986 0.1914,4.15163 3.9296,5.04437 5.8791,3.68637 0.7692,-0.4989 0.7259,-0.20083 0.3059,0.31856 -2.8957,3.56083 -1.1424,8.14624 2.7673,8.23469 10e-4,2e-5 0,-2e-5 0,0 z" />
      <path
         style="display:inline;opacity:1"
         id="path147-0-8-1-6-75-2-9-77-44-0-7"
         d="m 2901.1358,-989.43589 c -9.7745,0.21226 -14.1574,11.21727 -6.9184,19.76328 1.0499,1.24653 1.1582,1.96188 -0.7646,0.76453 -4.8738,-3.25919 -14.2192,-1.11663 -14.6978,8.84728 -0.5911,12.27695 16.5629,15.81426 19.7837,2.75967 0.1701,-1.37736 1.2894,-1.34594 1.0196,0.60916 -0.2937,5.30641 -1.9509,10.26606 -4.2287,15.10253 3.8391,0 8.1296,0 11.6202,0 -2.2777,-4.83647 -3.9349,-9.79612 -4.2286,-15.10253 -0.2699,-1.9551 0.8495,-1.98652 1.0195,-0.60916 3.2209,13.05459 20.3749,9.51728 19.7837,-2.75967 -0.4784,-9.96391 -9.8239,-12.10647 -14.6978,-8.84728 -1.9228,1.19735 -1.8145,0.482 -0.7646,-0.76453 7.2391,-8.54601 2.8561,-19.55101 -6.9182,-19.76328 0,-6e-5 0,5e-5 -0.01,0 z" />
      <path
         style="display:inline;opacity:1"
         id="path147-0-8-1-6-75-2-8-0-3-9-3"
         d="m 2901.1358,-875.66057 c -9.7745,-0.21226 -14.1575,-11.21728 -6.9184,-19.76329 1.0499,-1.24653 1.1582,-1.96188 -0.7646,-0.76453 -4.8738,3.25919 -14.2192,1.11663 -14.6978,-8.84728 -0.5911,-12.27694 16.5629,-15.81426 19.7837,-2.75966 0.1701,1.37736 1.2894,1.34593 1.0196,-0.60917 -0.2937,-5.30641 -1.9509,-10.26606 -4.2287,-15.10253 3.8391,0 8.1296,0 11.6202,0 -2.2777,4.83647 -3.9349,9.79612 -4.2286,15.10253 -0.2699,1.9551 0.8495,1.98653 1.0195,0.60917 3.2209,-13.0546 20.3749,-9.51728 19.7837,2.75966 -0.4784,9.96391 -9.8239,12.10647 -14.6978,8.84728 -1.9228,-1.19735 -1.8145,-0.482 -0.7646,0.76453 7.2391,8.54601 2.8561,19.55102 -6.9182,19.76329 0,6e-5 0,-5e-5 -0.01,0 z" />
      <path
         style="display:inline;opacity:1"
         id="path147-0-8-1-6-75-2-9-7-1-9-7-9"
         d="m 3004.2066,-989.43589 c -9.7745,0.21226 -14.1574,11.21727 -6.9184,19.76328 1.0499,1.24653 1.1582,1.96188 -0.7646,0.76453 -4.8738,-3.25919 -14.2192,-1.11663 -14.6978,8.84728 -0.5911,12.27695 16.5629,15.81426 19.7837,2.75967 0.1701,-1.37736 1.2895,-1.34594 1.0196,0.60916 -0.2937,5.30641 -1.9509,10.26606 -4.2287,15.10253 3.8391,0 8.1296,0 11.6202,0 -2.2777,-4.83647 -3.9349,-9.79612 -4.2286,-15.10253 -0.2699,-1.9551 0.8495,-1.98652 1.0195,-0.60916 3.2209,13.05459 20.3749,9.51728 19.7837,-2.75967 -0.4784,-9.96391 -9.8239,-12.10647 -14.6978,-8.84728 -1.9228,1.19735 -1.8144,0.482 -0.7645,-0.76453 7.239,-8.54601 2.8561,-19.55101 -6.9183,-19.76328 0,-6e-5 0,5e-5 -0.01,0 z" />
      <path
         style="display:inline;opacity:1"
         id="path147-0-8-1-6-75-2-8-5-1-52-2-8"
         d="m 3004.2066,-875.66057 c -9.7745,-0.21226 -14.1574,-11.21728 -6.9184,-19.76329 1.0499,-1.24653 1.1582,-1.96188 -0.7646,-0.76453 -4.8738,3.25919 -14.2192,1.11663 -14.6978,-8.84728 -0.5911,-12.27694 16.5629,-15.81426 19.7837,-2.75966 0.1701,1.37736 1.2895,1.34593 1.0196,-0.60917 -0.2937,-5.30641 -1.9509,-10.26606 -4.2287,-15.10253 3.8391,0 8.1296,0 11.6202,0 -2.2777,4.83647 -3.9349,9.79612 -4.2286,15.10253 -0.2699,1.9551 0.8495,1.98653 1.0195,0.60917 3.2209,-13.0546 20.3749,-9.51728 19.7837,2.75966 -0.4784,9.96391 -9.8239,12.10647 -14.6978,8.84728 -1.9228,-1.19735 -1.8144,-0.482 -0.7645,0.76453 7.239,8.54601 2.8561,19.55102 -6.9183,19.76329 0,6e-5 0,-5e-5 -0.01,0 z" />
      <path
         style="display:inline;opacity:1"
         id="path147-6-9-8-7-4-5-62-52-8-0"
         d="m 2858.6982,-1038.5561 c -3.9098,0.088 -5.663,4.6738 -2.7674,8.2347 0.42,0.5194 0.4633,0.8174 -0.3058,0.3185 -1.9496,-1.358 -5.6877,-0.4652 -5.8791,3.6864 -0.2365,5.1154 6.6251,6.5893 7.9135,1.1499 0.068,-0.5739 0.5158,-0.5608 0.4077,0.2538 -0.1174,2.211 -0.7803,4.2775 -1.6914,6.2927 1.5493,0 3.0986,0 4.6479,0 -0.9111,-2.0152 -1.574,-4.0817 -1.6914,-6.2927 -0.108,-0.8146 0.3397,-0.8277 0.4077,-0.2538 1.2884,5.4394 8.15,3.9655 7.9136,-1.1499 -0.1915,-4.1516 -3.9296,-5.0444 -5.8792,-3.6864 -0.7691,0.4989 -0.7258,0.2009 -0.3058,-0.3185 2.8956,-3.5609 1.1424,-8.1463 -2.7673,-8.2347 -10e-4,0 0,0 0,0 z" />
      <path
         d="m 2848.7242,-1041.6816 v -32.8938 h 3.1846 v 32.8938 z m 0,0"
         id="path31-6-7-6"
         style="opacity:1" />
      <path
         d="m 2861.3484,-1074.576 c -3.0656,0 -5.5295,2.8036 -5.5295,6.2859 v 20.3233 c 0,3.4823 2.4652,6.2846 5.5295,6.2846 h 1.7893 c 3.0655,0 5.5345,-2.8023 5.5345,-6.2846 v -20.3233 c 0,-3.4823 -2.4703,-6.2859 -5.5345,-6.2859 z m 0.9253,3.1103 c 1.8099,0 3.2652,1.39 3.2652,3.1286 v 20.5922 c 0,1.7385 -1.4553,3.1416 -3.2652,3.1416 -1.8098,0 -3.2702,-1.4031 -3.2702,-3.1416 v -20.5922 c 0,-1.7373 1.4604,-3.1286 3.2702,-3.1286 z m 0,0"
         id="path33-9-3-6"
         style="opacity:1" />
      <path
         d="m 3056.6243,-824.24369 v 32.8938 h -3.1845 v -32.8938 z m 0,0"
         id="path31-1-4-0-7"
         style="opacity:1" />
      <path
         d="m 3044.0002,-791.34925 c 3.0655,0 5.5294,-2.80358 5.5294,-6.28587 v -20.32334 c 0,-3.4823 -2.4652,-6.28458 -5.5294,-6.28458 h -1.7894 c -3.0655,0 -5.5345,2.80228 -5.5345,6.28458 v 20.32334 c 0,3.48229 2.4703,6.28587 5.5345,6.28587 z m -0.9254,-3.1103 c -1.8099,0 -3.2652,-1.39004 -3.2652,-3.12859 v -20.59222 c 0,-1.73854 1.4553,-3.14163 3.2652,-3.14163 1.8098,0 3.2703,1.40309 3.2703,3.14163 v 20.59222 c 0,1.73724 -1.4605,3.12859 -3.2703,3.12859 z m 0,0"
         id="path33-5-7-4-0"
         style="opacity:1" />
    </g>
  </g>
</svg>
