<?xml version="1.0" encoding="UTF-8" standalone="no"?>
<svg
   xmlns:dc="http://purl.org/dc/elements/1.1/"
   xmlns:cc="http://creativecommons.org/ns#"
   xmlns:rdf="http://www.w3.org/1999/02/22-rdf-syntax-ns#"
   xmlns:svg="http://www.w3.org/2000/svg"
   xmlns="http://www.w3.org/2000/svg"
   xmlns:xlink="http://www.w3.org/1999/xlink"
   version="1.1"
   id="svg11376"
   viewBox="0 0 223.22835 311.81103"
   height="3.4645669in"
   width="2.480315in">
  <defs
     id="defs11378">
    <linearGradient
       id="linearGradient3006">
      <stop
         id="stop3008"
         offset="0"
         style="stop-color:#ffffff;stop-opacity:1;" />
      <stop
         style="stop-color:#7f7f7f;stop-opacity:1;"
         offset="0.37675071"
         id="stop3014" />
      <stop
         id="stop3016"
         offset="0.80194807"
         style="stop-color:#ffffff;stop-opacity:1;" />
      <stop
         id="stop3010"
         offset="1"
         style="stop-color:#cccccc;stop-opacity:1" />
    </linearGradient>
    <linearGradient
       id="linearGradient3804">
      <stop
         id="stop3806"
         offset="0"
         style="stop-color:#000000;stop-opacity:1;" />
      <stop
         style="stop-color:#333333;stop-opacity:1"
         offset="0.5"
         id="stop3812" />
      <stop
         id="stop3808"
         offset="1"
         style="stop-color:#000000;stop-opacity:1;" />
    </linearGradient>
    <linearGradient
       id="linearGradient3851">
      <stop
         id="stop3853"
         offset="0"
         style="stop-color:#808080;stop-opacity:1;" />
      <stop
         style="stop-color:#ffffff;stop-opacity:1;"
         offset="0.5"
         id="stop3859" />
      <stop
         id="stop3855"
         offset="1"
         style="stop-color:#808080;stop-opacity:1;" />
    </linearGradient>
    <radialGradient
       gradientUnits="userSpaceOnUse"
       gradientTransform="matrix(0.97241988,-0.00350785,0.00204639,0.40929875,4026.4071,-290.65137)"
       r="74.726646"
       fy="208.92761"
       fx="44.149761"
       cy="208.92761"
       cx="44.149761"
       id="radialGradient3939-7-7"
       xlink:href="#linearGradient3933-4-3" />
    <linearGradient
       id="linearGradient3933-4-3">
      <stop
         id="stop3935-0-7"
         offset="0"
         style="stop-color:#000000;stop-opacity:1;" />
      <stop
         id="stop3937-9-2"
         offset="1"
         style="stop-color:#000000;stop-opacity:0;" />
    </linearGradient>
    <linearGradient
       gradientTransform="translate(3914.848,-255.2825)"
       gradientUnits="userSpaceOnUse"
       y2="294.38422"
       x2="178.15625"
       y1="294.38422"
       x1="81.90625"
       id="linearGradient3012-2-7"
       xlink:href="#linearGradient3006" />
    <linearGradient
       gradientUnits="userSpaceOnUse"
       y2="394.69629"
       x2="156.7487"
       y1="394.69629"
       x1="65.223801"
       id="linearGradient3810-9-1"
       xlink:href="#linearGradient3804"
       gradientTransform="translate(3914.848,-376.2825)" />
    <radialGradient
       gradientUnits="userSpaceOnUse"
       gradientTransform="matrix(0.79138519,4.4166814e-8,0,0.48100739,3940.8627,-177.7307)"
       r="43.141743"
       fy="428.49252"
       fx="114.59315"
       cy="428.49252"
       cx="114.59315"
       id="radialGradient3030-7-1"
       xlink:href="#linearGradient3024-3-7" />
    <linearGradient
       id="linearGradient3024-3-7">
      <stop
         style="stop-color:#000000;stop-opacity:1"
         offset="0"
         id="stop3028-2-7" />
      <stop
         style="stop-color:#242424;stop-opacity:1;"
         offset="1"
         id="stop3026-2-7" />
    </linearGradient>
    <linearGradient
       y2="390.78296"
       x2="183.7796"
       y1="375.92633"
       x1="145.60164"
       gradientUnits="userSpaceOnUse"
       id="linearGradient3113-4-7"
       xlink:href="#linearGradient3933-4-3"
       gradientTransform="translate(3914.848,-376.2825)" />
    <linearGradient
       gradientUnits="userSpaceOnUse"
       y2="405.19611"
       x2="116.81388"
       y1="395.66125"
       x1="113.00574"
       id="linearGradient3107-7-9"
       xlink:href="#linearGradient3933-4-3"
       gradientTransform="translate(3914.848,-376.2825)" />
    <linearGradient
       y2="459.14062"
       x2="-128.625"
       y1="459.14062"
       x1="-158.78125"
       gradientTransform="matrix(0.43846429,7.9081918e-4,-6.5324466e-4,0.53080568,903.27012,-3758.3554)"
       gradientUnits="userSpaceOnUse"
       id="linearGradient3086-3-9"
       xlink:href="#linearGradient3804" />
    <linearGradient
       y2="463.51562"
       x2="-281.15625"
       y1="463.51562"
       x1="-311.3125"
       gradientTransform="matrix(0.43846429,7.9081918e-4,-6.5324466e-4,0.53080568,970.15112,-3759.4954)"
       gradientUnits="userSpaceOnUse"
       id="linearGradient3088-8-0"
       xlink:href="#linearGradient3851" />
    <radialGradient
       gradientUnits="userSpaceOnUse"
       gradientTransform="matrix(0.97241988,-0.00350785,0.00204639,0.40929875,4026.4074,-290.65146)"
       r="74.726646"
       fy="208.92761"
       fx="44.149761"
       cy="208.92761"
       cx="44.149761"
       id="radialGradient3939-7-6"
       xlink:href="#linearGradient3933-4-3" />
    <linearGradient
       y2="536.86133"
       x2="201.77882"
       y1="536.86133"
       x1="104.75369"
       gradientTransform="translate(3896.2872,-468.4428)"
       gradientUnits="userSpaceOnUse"
       id="linearGradient3004-8"
       xlink:href="#linearGradient2989-6-6" />
    <linearGradient
       id="linearGradient2989-6-6">
      <stop
         id="stop2991-1-5"
         offset="0"
         style="stop-color:#1f1f1f;stop-opacity:1" />
      <stop
         style="stop-color:#000000;stop-opacity:1;"
         offset="0.5"
         id="stop2997-8-0" />
      <stop
         id="stop2993-9-9"
         offset="1"
         style="stop-color:#444444;stop-opacity:1" />
    </linearGradient>
    <linearGradient
       gradientTransform="translate(3914.8482,-255.28248)"
       gradientUnits="userSpaceOnUse"
       y2="294.38422"
       x2="178.15625"
       y1="294.38422"
       x1="81.90625"
       id="linearGradient3012-2-0"
       xlink:href="#linearGradient3006" />
    <linearGradient
       gradientUnits="userSpaceOnUse"
       y2="394.69629"
       x2="156.7487"
       y1="394.69629"
       x1="65.223801"
       id="linearGradient3810-9-9"
       xlink:href="#linearGradient3804"
       gradientTransform="translate(3914.8482,-376.2825)" />
    <radialGradient
       gradientUnits="userSpaceOnUse"
       gradientTransform="matrix(0.79138519,4.4166814e-8,0,0.48100739,3940.8629,-177.73073)"
       r="43.141743"
       fy="428.49252"
       fx="114.59315"
       cy="428.49252"
       cx="114.59315"
       id="radialGradient3030-7-0"
       xlink:href="#linearGradient3024-3-7" />
    <linearGradient
       y2="390.78296"
       x2="183.7796"
       y1="375.92633"
       x1="145.60164"
       gradientUnits="userSpaceOnUse"
       id="linearGradient3113-4-8"
       xlink:href="#linearGradient3933-4-3"
       gradientTransform="translate(3914.8482,-376.2825)" />
    <linearGradient
       gradientUnits="userSpaceOnUse"
       y2="405.19611"
       x2="116.81388"
       y1="395.66125"
       x1="113.00574"
       id="linearGradient3107-7-3"
       xlink:href="#linearGradient3933-4-3"
       gradientTransform="translate(3914.8482,-376.2825)" />
    <linearGradient
       y2="459.14062"
       x2="-128.625"
       y1="459.14062"
       x1="-158.78125"
       gradientTransform="matrix(0.43846429,7.9081918e-4,-6.5324466e-4,0.53080568,903.2701,-3758.3555)"
       gradientUnits="userSpaceOnUse"
       id="linearGradient3086-3-7"
       xlink:href="#linearGradient3804" />
    <linearGradient
       y2="463.51562"
       x2="-281.15625"
       y1="463.51562"
       x1="-311.3125"
       gradientTransform="matrix(0.43846429,7.9081918e-4,-6.5324466e-4,0.53080568,970.15118,-3759.4955)"
       gradientUnits="userSpaceOnUse"
       id="linearGradient3088-8-1"
       xlink:href="#linearGradient3851" />
    <pattern
       patternTransform="matrix(-0.11059956,0.11059956,-0.11059956,-0.11059956,-70.743467,2137.2659)"
       id="pattern72508"
       xlink:href="#pattern13545-1" />
    <pattern
       xlink:href="#pattern13024-5"
       id="pattern13545-1"
       patternTransform="matrix(-0.11059956,0.11059956,-0.11059956,-0.11059956,-106.1174,687.64592)" />
    <pattern
       patternUnits="userSpaceOnUse"
       width="108.6184"
       height="110.74085"
       patternTransform="translate(-254.02376,74.426221)"
       id="pattern13024-5">
      <path
         transform="translate(1070.3552,-11.763587)"
         d="m -1016.046,25.720671 -10.7642,16.120541 7.1773,18.006272 -18.6578,-5.255841 -14.9071,12.390288 -0.767,-19.36883 -16.3904,-10.348653 18.1838,-6.714754 4.7773,-18.786107 12.0052,15.218884 z"
         id="path13016-2"
         style="fill:#131f67;fill-opacity:1;stroke:none" />
      <path
         style="fill:#131f67;fill-opacity:1;stroke:none"
         id="path13018-7"
         d="m -1016.046,25.720671 -10.7642,16.120541 7.1773,18.006272 -18.6578,-5.255841 -14.9071,12.390288 -0.767,-19.36883 -16.3904,-10.348653 18.1838,-6.714754 4.7773,-18.786107 12.0052,15.218884 z"
         transform="matrix(0.8660254,0.5,-0.5,0.8660254,946.33909,568.72784)" />
      <path
         d="m -1016.046,25.720671 -10.7642,16.120541 7.1773,18.006272 -18.6578,-5.255841 -14.9071,12.390288 -0.767,-19.36883 -16.3904,-10.348653 18.1838,-6.714754 4.7773,-18.786107 12.0052,15.218884 z"
         id="path13020-6"
         style="fill:#131f67;fill-opacity:1;stroke:none"
         transform="translate(1124.6644,-11.763587)" />
      <path
         style="fill:#131f67;fill-opacity:1;stroke:none"
         id="path13022-1"
         d="m -1016.046,25.720671 -10.7642,16.120541 7.1773,18.006272 -18.6578,-5.255841 -14.9071,12.390288 -0.767,-19.36883 -16.3904,-10.348653 18.1838,-6.714754 4.7773,-18.786107 12.0052,15.218884 z"
         transform="matrix(0.8660254,0.5,-0.5,0.8660254,1000.6483,568.72784)" />
    </pattern>
    <pattern
       patternTransform="matrix(0.10623121,-0.1062312,0.10623121,0.1062312,-199.21061,2428.6515)"
       id="pattern72564"
       xlink:href="#pattern15142-1" />
    <pattern
       xlink:href="#pattern13074-4-7"
       id="pattern15142-1"
       patternTransform="matrix(0.10623121,-0.1062312,0.10623121,0.1062312,-598.64084,979.03152)" />
    <pattern
       xlink:href="#pattern13064-2-4"
       id="pattern13074-4-7"
       patternTransform="matrix(0.10623121,-0.1062312,0.10623121,0.1062312,-605.82881,365.81179)" />
    <pattern
       xlink:href="#pattern8526-950-188-3-0"
       id="pattern13064-2-4"
       patternTransform="matrix(0.10623121,-0.1062312,0.10623121,0.1062312,-836.82881,38.811786)" />
    <pattern
       xlink:href="#pattern8519-687-26-2-9"
       id="pattern8526-950-188-3-0"
       patternTransform="matrix(0.10623121,-0.1062312,0.10623121,0.1062312,13.113538,22.901883)" />
    <pattern
       xlink:href="#pattern8507-266-27-2-4"
       id="pattern8519-687-26-2-9"
       patternTransform="matrix(0.10623121,-0.1062312,0.10623121,0.1062312,-23.656015,100.68363)" />
    <pattern
       xlink:href="#pattern8501-248-271-1-8"
       id="pattern8507-266-27-2-4"
       patternTransform="matrix(0.10623119,-0.10623119,0.10623119,0.10623119,194.54709,-74.729113)" />
    <pattern
       xlink:href="#pattern8475-545-163-6-8"
       id="pattern8501-248-271-1-8"
       patternTransform="matrix(0.0652057,-0.0652057,0.0652057,0.0652057,194.54709,-74.729113)" />
    <pattern
       xlink:href="#pattern8463-7-486-8-2"
       id="pattern8475-545-163-6-8"
       patternTransform="matrix(0.11006325,-0.11006325,0.11006325,0.11006325,-254.02376,74.426221)" />
    <pattern
       patternUnits="userSpaceOnUse"
       width="108.6184"
       height="110.74085"
       patternTransform="translate(-254.02376,74.426221)"
       id="pattern8463-7-486-8-2">
      <path
         transform="translate(1070.3552,-11.763587)"
         d="m -1016.046,25.720671 -10.7642,16.120541 7.1773,18.006272 -18.6578,-5.255841 -14.9071,12.390288 -0.767,-19.36883 -16.3904,-10.348653 18.1838,-6.714754 4.7773,-18.786107 12.0052,15.218884 z"
         id="path11396-5-4"
         style="fill:#d40000;fill-opacity:1;stroke:none" />
      <path
         style="fill:#d40000;fill-opacity:1;stroke:none"
         id="path11398-7-5"
         d="m -1016.046,25.720671 -10.7642,16.120541 7.1773,18.006272 -18.6578,-5.255841 -14.9071,12.390288 -0.767,-19.36883 -16.3904,-10.348653 18.1838,-6.714754 4.7773,-18.786107 12.0052,15.218884 z"
         transform="matrix(0.8660254,0.5,-0.5,0.8660254,946.33909,568.72784)" />
      <path
         d="m -1016.046,25.720671 -10.7642,16.120541 7.1773,18.006272 -18.6578,-5.255841 -14.9071,12.390288 -0.767,-19.36883 -16.3904,-10.348653 18.1838,-6.714754 4.7773,-18.786107 12.0052,15.218884 z"
         id="path11400-6-5"
         style="fill:#d40000;fill-opacity:1;stroke:none"
         transform="translate(1124.6644,-11.763587)" />
      <path
         style="fill:#d40000;fill-opacity:1;stroke:none"
         id="path11402-1-1"
         d="m -1016.046,25.720671 -10.7642,16.120541 7.1773,18.006272 -18.6578,-5.255841 -14.9071,12.390288 -0.767,-19.36883 -16.3904,-10.348653 18.1838,-6.714754 4.7773,-18.786107 12.0052,15.218884 z"
         transform="matrix(0.8660254,0.5,-0.5,0.8660254,1000.6483,568.72784)" />
    </pattern>
  </defs>
  <metadata
     id="metadata11381">
    <rdf:RDF>
      <cc:Work
         rdf:about="">
        <dc:format>image/svg+xml</dc:format>
        <dc:type
           rdf:resource="http://purl.org/dc/dcmitype/StillImage" />
        <dc:title></dc:title>
      </cc:Work>
    </rdf:RDF>
  </metadata>
  <g
     transform="translate(-469.01575,1096.2957)"
     id="layer1">
    <g
       transform="matrix(0.99999712,0,0,1.000002,5.9820329,-7.4256344)"
       id="g5120">
      <rect
         ry="10.629898"
         rx="10.629951"
         style="display:inline;fill:#ffffff;fill-opacity:1;stroke:#000000;stroke-width:0.99673247;stroke-miterlimit:4;stroke-dasharray:none;stroke-opacity:1"
         id="rect6355-6-85-9-3-2"
         width="222.23225"
         height="310.81366"
         x="463.53342"
         y="-1088.3695" />
      <path
         d="m 574.6454,-956.47145 c -9.77448,0.21226 -14.15742,11.21727 -6.91838,19.76329 1.04991,1.24653 1.15822,1.96187 -0.76457,0.76452 -4.87385,-3.25919 -14.21926,-1.11662 -14.69781,8.84728 -0.59115,12.27695 16.56285,15.81427 19.78371,2.75967 0.17004,-1.37736 1.28941,-1.34593 1.01952,0.60916 -0.29367,5.30641 -1.95083,10.26606 -4.22862,15.10253 3.83908,0 8.12955,0 11.62019,0 -2.27768,-4.83647 -3.93495,-9.79612 -4.22863,-15.10253 -0.26989,-1.95509 0.84949,-1.98652 1.01953,-0.60916 3.22086,13.0546 20.37486,9.51728 19.78371,-2.75967 -0.47845,-9.9639 -9.82396,-12.10647 -14.69781,-8.84728 -1.92278,1.19735 -1.81447,0.48201 -0.76457,-0.76452 7.23905,-8.54602 2.8561,-19.55102 -6.91829,-19.76329 0,-6e-5 0,5e-5 -0.01,0 z"
         id="path147-0-8-1-6-1-1-0-9-1-8"
         style="display:inline;opacity:1" />
      <path
         d="m 668.62737,-827.36918 c 3.90978,-0.0884 5.66302,-4.67387 2.7674,-8.2347 -0.42002,-0.51939 -0.46333,-0.81746 0.30583,-0.31856 1.94956,1.358 5.6877,0.46526 5.87914,-3.68637 0.23644,-5.11539 -6.6252,-6.58927 -7.91353,-1.14986 -0.0677,0.57391 -0.51578,0.56081 -0.40777,-0.25381 0.11748,-2.21101 0.78031,-4.27753 1.69142,-6.29272 -1.54925,0 -3.09861,0 -4.64787,0 0.91112,2.01519 1.57395,4.08171 1.69142,6.29272 0.10802,0.81462 -0.33977,0.82772 -0.40777,0.25381 -1.28832,-5.43941 -8.14997,-3.96553 -7.91353,1.14986 0.19144,4.15163 3.92959,5.04437 5.87915,3.68637 0.76915,-0.4989 0.72585,-0.20083 0.30583,0.31856 -2.89562,3.56083 -1.14238,8.14624 2.76729,8.2347 10e-4,2e-5 0,-2e-5 0,0 z"
         id="path147-6-9-8-7-0-5-0-8-3"
         style="display:inline;opacity:1" />
      <path
         d="m 470.62543,-1041.6816 v -2.8127 h 2.68028 l 5.70981,-30.0817 h 3.24983 l 6.2897,30.0817 h 2.1644 v 2.8127 h -7.37513 v -2.8127 h 1.99038 l -0.79484,-4.6099 h -7.44035 l -0.57473,4.6099 h 1.99028 v 2.8127 z m 13.27957,-10.7064 -3.2345,-16.1007 -3.02962,16.1007 z m 0,0"
         id="path41-6-3-5-1"
         style="display:inline;opacity:1" />
      <path
         d="m 658.57747,-824.24369 v 2.81266 h 2.68028 l 5.70981,30.08178 h 3.24983 l 6.28971,-30.08178 h 2.1644 v -2.81266 h -7.37514 v 2.81266 h 1.99038 l -0.79484,4.60989 h -7.44035 l -0.57472,-4.60989 h 1.99027 v -2.81266 z m 13.27958,10.70638 -3.23451,16.10071 -3.02962,-16.10071 z m 0,0"
         id="path41-6-4-0-2-8"
         style="display:inline;opacity:1" />
      <path
         d="m 480.67243,-1038.5561 c -3.90977,0.088 -5.66301,4.6738 -2.76739,8.2347 0.42001,0.5194 0.46332,0.8174 -0.30583,0.3185 -1.94956,-1.358 -5.6877,-0.4652 -5.87914,3.6864 -0.23644,5.1154 6.62519,6.5893 7.91352,1.1499 0.0677,-0.5739 0.51579,-0.5608 0.40777,0.2538 -0.11747,2.211 -0.7803,4.2775 -1.69142,6.2927 1.54926,0 3.09861,0 4.64787,0 -0.91112,-2.0152 -1.57395,-4.0817 -1.69142,-6.2927 -0.10801,-0.8146 0.33978,-0.8277 0.40777,-0.2538 1.28833,5.4394 8.14997,3.9655 7.91353,-1.1499 -0.19144,-4.1516 -3.92958,-5.0444 -5.87915,-3.6864 -0.76915,0.4989 -0.72584,0.2009 -0.30582,-0.3185 2.89562,-3.5609 1.14238,-8.1463 -2.7673,-8.2347 -10e-4,0 0,0 0,0 z"
         id="path147-6-9-8-7-4-5-6-8-9"
         style="display:inline;opacity:1" />
    </g>
  </g>
</svg>
